<svg width="128" height="128" viewBox="0 0 128 128" fill="none" xmlns="http://www.w3.org/2000/svg">
<path d="M112.294 15.7005C104.9 8.30053 85.1201 15.5255 64.0001 32.0153C42.875 15.5251 23.0951 8.3059 15.7057 15.7005C8.30064 23.1004 15.5307 42.8749 32.0154 64C15.5303 85.1251 8.30089 104.905 15.7057 112.299C23.1006 119.699 42.8852 112.469 64.0052 95.9846C85.1252 112.475 104.905 119.699 112.3 112.299C119.7 104.9 112.47 85.12 95.9796 64C112.475 42.8749 119.699 23.1001 112.294 15.7005ZM103.955 21.3254C105.52 21.3254 106.18 21.6504 106.265 21.7354C106.695 22.1654 107.805 27.0054 102.459 38.145C99.5595 44.1901 95.4544 50.6701 90.4545 57.2298C87.5045 53.8198 84.3395 50.4099 80.9644 47.0349C77.5945 43.6699 74.1844 40.4998 70.7795 37.5549C84.8339 26.8699 97.1846 21.3245 103.955 21.3245V21.3254ZM84.9952 63.9955C81.8702 67.6655 78.5201 71.3355 74.9251 74.9305C71.2601 78.6006 67.6001 81.9456 64.0052 84.9956C60.3352 81.8756 56.6652 78.5256 53.0752 74.9305C49.4051 71.2605 46.0601 67.6005 43.0051 64.0106C46.1251 60.3356 49.4752 56.6706 53.0652 53.0806C56.7402 49.4105 60.4002 46.0605 63.9902 43.0105C67.6652 46.1355 71.3353 49.4856 74.9253 53.0806C78.6003 56.7456 81.9453 60.4006 84.9953 63.9955H84.9952ZM21.3305 24.0454C21.3305 22.4854 21.6555 21.8204 21.7355 21.7354C22.1605 21.3104 27.0055 20.1954 38.1451 25.5455C44.1902 28.4454 50.6651 32.5505 57.2299 37.5455C53.8199 40.4955 50.405 43.6604 47.0299 47.0355C43.6599 50.4055 40.4948 53.8155 37.5549 57.2205C26.8699 43.1661 21.3296 30.8102 21.3296 24.0454H21.3305ZM24.0455 106.676C22.4805 106.676 21.8155 106.346 21.7355 106.271C21.3055 105.841 20.1955 101.001 25.5456 89.8612C28.4455 83.8212 32.5456 77.3413 37.5456 70.7764C40.4956 74.1865 43.6605 77.5964 47.0356 80.9765C50.4056 84.3515 53.8106 87.5115 57.2206 90.4564C43.1662 101.131 30.8103 106.677 24.0455 106.677V106.676ZM106.676 103.956C106.676 105.516 106.346 106.181 106.266 106.261C105.836 106.691 100.996 107.806 89.8563 102.456C83.8163 99.5558 77.3364 95.4507 70.7767 90.4508C74.1817 87.5008 77.5966 84.3359 80.9666 80.9657C84.3416 77.5958 87.5066 74.1857 90.4517 70.7758C101.132 84.8353 106.677 97.186 106.677 103.956L106.676 103.956Z" fill="white"/>
</svg>
